<?xml version="1.0" encoding="UTF-8" standalone="no"?>
<!-- Generator: Adobe Illustrator 16.0.0, SVG Export Plug-In . SVG Version: 6.00 Build 0)  -->

<svg
   xmlns:dc="http://purl.org/dc/elements/1.1/"
   xmlns:cc="http://creativecommons.org/ns#"
   xmlns:rdf="http://www.w3.org/1999/02/22-rdf-syntax-ns#"
   xmlns:svg="http://www.w3.org/2000/svg"
   xmlns="http://www.w3.org/2000/svg"
   xmlns:sodipodi="http://sodipodi.sourceforge.net/DTD/sodipodi-0.dtd"
   xmlns:inkscape="http://www.inkscape.org/namespaces/inkscape"
   version="1.1"
   id="Capa_1"
   x="0px"
   y="0px"
   width="436.14099"
   height="291.14099"
   viewBox="0 0 436.141 291.141"
   xml:space="preserve"
   sodipodi:docname="64945.svg"
   inkscape:version="0.92.3 (d244b95, 2018-08-02)"><metadata
   id="metadata49"><rdf:RDF><cc:Work
       rdf:about=""><dc:format>image/svg+xml</dc:format><dc:type
         rdf:resource="http://purl.org/dc/dcmitype/StillImage" /><dc:title></dc:title></cc:Work></rdf:RDF></metadata><defs
   id="defs47" /><sodipodi:namedview
   pagecolor="#ffffff"
   bordercolor="#666666"
   borderopacity="1"
   objecttolerance="10"
   gridtolerance="10"
   guidetolerance="10"
   inkscape:pageopacity="0"
   inkscape:pageshadow="2"
   inkscape:window-width="1319"
   inkscape:window-height="744"
   id="namedview45"
   showgrid="false"
   inkscape:zoom="0.54110942"
   inkscape:cx="218.0705"
   inkscape:cy="218.0705"
   inkscape:window-x="47"
   inkscape:window-y="24"
   inkscape:window-maximized="1"
   inkscape:current-layer="Capa_1" />
<g
   id="g12"
   transform="translate(2,-72.926067)">
	<g
   id="g10">
		<path
   d="M 107.359,73.07 C 78.066,73.07 50.74,88.579 30.423,116.74 10.804,143.931 0,179.917 0,218.07 c 0,38.152 10.805,74.141 30.424,101.33 20.316,28.162 47.642,43.67 76.935,43.67 29.297,0 56.619,-15.508 76.939,-43.67 19.618,-27.189 30.421,-63.178 30.421,-101.33 0,-38.153 -10.803,-74.139 -30.421,-101.33 -20.32,-28.161 -47.642,-43.67 -76.939,-43.67 z m 60.977,234.815 c -16.521,22.893 -38.174,35.502 -60.977,35.502 -22.803,0 -44.455,-12.609 -60.976,-35.502 -17.218,-23.869 -26.701,-55.762 -26.701,-89.814 0,-34.052 9.482,-65.949 26.701,-89.813 16.521,-22.895 38.173,-35.504 60.976,-35.504 22.803,0 44.456,12.609 60.977,35.504 17.219,23.864 26.701,55.761 26.701,89.813 0,34.052 -9.483,65.945 -26.701,89.814 z"
   id="path2"
   inkscape:connector-curvature="0" />
		<path
   d="m 107.359,168.863 c -27.175,0 -49.205,22.029 -49.205,49.208 0,15.281 6.968,28.937 17.898,37.963 -0.205,-1.174 -0.164,-2.348 0.176,-3.479 1.736,-5.856 10.479,-8.424 19.532,-5.737 9.05,2.683 14.978,9.608 13.238,15.465 -0.622,2.097 -2.151,3.763 -4.261,4.925 0.867,0.045 1.742,0.07 2.621,0.07 27.179,0 49.209,-22.031 49.209,-49.205 0.001,-27.179 -22.029,-49.21 -49.208,-49.21 z m 29.46,27.728 c -1.74,5.856 -10.485,8.425 -19.534,5.74 -9.052,-2.687 -14.979,-9.611 -13.24,-15.467 1.738,-5.857 10.483,-8.427 19.534,-5.741 9.05,2.688 14.977,9.611 13.24,15.468 z"
   id="path4"
   inkscape:connector-curvature="0" />
		<path
   d="M 405.717,116.74 C 385.399,88.579 358.074,73.07 328.781,73.07 c -29.297,0 -56.619,15.509 -76.938,43.67 -19.619,27.191 -30.422,63.177 -30.422,101.33 0,38.152 10.803,74.141 30.422,101.33 20.319,28.162 47.642,43.67 76.938,43.67 29.293,0 56.617,-15.508 76.936,-43.67 19.617,-27.189 30.424,-63.178 30.424,-101.33 0,-38.153 -10.807,-74.139 -30.424,-101.33 z m -15.959,191.145 c -16.521,22.893 -38.176,35.502 -60.977,35.502 -22.803,0 -44.457,-12.609 -60.978,-35.502 -17.219,-23.869 -26.7,-55.763 -26.7,-89.814 0,-34.051 9.481,-65.949 26.7,-89.813 16.521,-22.895 38.175,-35.504 60.978,-35.504 22.801,0 44.455,12.609 60.977,35.504 17.217,23.864 26.699,55.761 26.699,89.813 0,34.052 -9.482,65.945 -26.699,89.814 z"
   id="path6"
   inkscape:connector-curvature="0" />
		<path
   d="m 328.781,168.863 c -27.18,0 -49.209,22.029 -49.209,49.208 0,15.281 6.967,28.937 17.898,37.963 -0.203,-1.174 -0.162,-2.348 0.176,-3.479 1.738,-5.856 10.482,-8.424 19.531,-5.737 9.053,2.683 14.979,9.608 13.242,15.465 -0.623,2.097 -2.152,3.763 -4.264,4.925 0.869,0.045 1.744,0.07 2.623,0.07 27.174,0 49.205,-22.031 49.205,-49.205 0.003,-27.179 -22.028,-49.21 -49.202,-49.21 z m 29.459,27.728 c -1.74,5.856 -10.484,8.425 -19.537,5.74 -9.049,-2.687 -14.979,-9.611 -13.236,-15.467 1.736,-5.857 10.482,-8.427 19.529,-5.741 9.053,2.688 14.979,9.611 13.244,15.468 z"
   id="path8"
   inkscape:connector-curvature="0" />
	</g>
</g>
<g
   id="g14"
   transform="translate(0,-145.00017)">
</g>
<g
   id="g16"
   transform="translate(0,-145.00017)">
</g>
<g
   id="g18"
   transform="translate(0,-145.00017)">
</g>
<g
   id="g20"
   transform="translate(0,-145.00017)">
</g>
<g
   id="g22"
   transform="translate(0,-145.00017)">
</g>
<g
   id="g24"
   transform="translate(0,-145.00017)">
</g>
<g
   id="g26"
   transform="translate(0,-145.00017)">
</g>
<g
   id="g28"
   transform="translate(0,-145.00017)">
</g>
<g
   id="g30"
   transform="translate(0,-145.00017)">
</g>
<g
   id="g32"
   transform="translate(0,-145.00017)">
</g>
<g
   id="g34"
   transform="translate(0,-145.00017)">
</g>
<g
   id="g36"
   transform="translate(0,-145.00017)">
</g>
<g
   id="g38"
   transform="translate(0,-145.00017)">
</g>
<g
   id="g40"
   transform="translate(0,-145.00017)">
</g>
<g
   id="g42"
   transform="translate(0,-145.00017)">
</g>
</svg>